<svg xmlns="http://www.w3.org/2000/svg" viewBox="0 0 141.63 98.06"><defs><style>.cls-1{fill:#fff;}</style></defs><g id="Calque_2" data-name="Calque 2"><g id="Calque_1-2" data-name="Calque 1"><path class="cls-1" d="M76.42,67.92l1.4-1.48h0l2.78-2.59A2.48,2.48,0,0,0,81.25,61c-.24-.75-.51-1.5-.77-2.24-.92-2.64-2-5.17-4.86-6.48l1.64-.76a13.1,13.1,0,0,0-5.43-.3c-1,.12-2,.2-3.08.27-2.61.16-5.23.3-7.84.45a.86.86,0,0,0-.89.63,6.74,6.74,0,0,0,2.81.43c1.52,0,3,0,4.55,0a2.83,2.83,0,0,1,2.49,1.2,18.49,18.49,0,0,1,3.07,7,3,3,0,0,1-.65,2.69c-.26.3-.49.63-.73.95a1.91,1.91,0,0,1-.5.63l0,0c-.8.18-1.13.88-1.58,1.45h0A13.93,13.93,0,0,0,67,69.15a15.87,15.87,0,0,1-1.68,1.7C62,73.42,60.59,77,60.07,81c-.45,3.48-1,7-1.43,10.44a4,4,0,0,1-.07.48c-.21,1-.57,1.33-1.65,1.36-1.35,0-2.71,0-4.07,0a1.35,1.35,0,0,0-1.46,1h0l0,0,0,0a6.63,6.63,0,0,0,2.33.43q6.95.13,13.84.79c1.15.11,2.41.27,3.42-.63-.93-.22-1.86-.42-2.78-.66a1.47,1.47,0,0,1-1.31-1.69,1.94,1.94,0,0,1,0-.48c.63-4.56,1.17-9.14,1.94-13.68A12.4,12.4,0,0,1,72.38,72c1.32-1.38,2.69-2.7,4-4Z"/><path class="cls-1" d="M36.56,85.74c.36-2.45.72-4.9,1.17-7.33A16.37,16.37,0,0,1,41.23,72c2.62-2.58,5.2-5.2,7.85-7.74a3.3,3.3,0,0,0,.81-4.11A55.82,55.82,0,0,0,47.5,54.9a1.33,1.33,0,0,1-.28-1.11c.12-.37.82-.16.74-.8-.31,0-.62-.08-.93-.08l-5.49.1-.07.39a14.48,14.48,0,0,0,1.86,0,3.13,3.13,0,0,1,3.15,1.73,23,23,0,0,1,2.32,5.49,3.31,3.31,0,0,1-.88,3.53C45.49,66.61,43,69,40.55,71.38a14.34,14.34,0,0,0-3.77,6.25,30.75,30.75,0,0,0-1.26,7.3c-.1,1.75-.36,3.49-.62,5.23s-.61,2-2.3,2.11a4.44,4.44,0,0,0-1.88.2c-.06,0-.15.12-.14.17s.07.35.17.4a2.79,2.79,0,0,0,.9.24q3.1.24,6.21.45a3.47,3.47,0,0,0,.72,0c.31,0,.69-.07.67-.49,0-.16-.27-.38-.46-.44a11,11,0,0,0-1.4-.33c-1.44-.34-1.53-.41-1.4-2S36.33,87.32,36.56,85.74Z"/><path class="cls-1" d="M140.14,62.94a5,5,0,0,0-1.06-.54c-1.05-.35-2.11-.66-3.47-1.08.59-.2.94-.34,1.29-.44a23.71,23.71,0,0,0,2.53-.73,3.38,3.38,0,0,0,2-4.12,5.15,5.15,0,0,0-2.95-3.26,39,39,0,0,0-6.43-1.86c-2.66-.51-2.95-.71-4.27-3a7.43,7.43,0,0,1-.6-1.55c-.29-1-.55-2-.79-3a4.36,4.36,0,0,0-1.25-2.28,9.48,9.48,0,0,1-2.31-3.32,7.46,7.46,0,0,0-2.37-2.92,7.89,7.89,0,0,1-2.61-3.37,4.81,4.81,0,0,0-1.53-2.11,29.68,29.68,0,0,0-7.49-4.67c-1.62-.68-3.31-1.19-4.94-1.85a34.6,34.6,0,0,0-8.56-2.17c-1.25-.15-2.48-.36-3.73-.54.15-.83.87-.76,1.27-1.09a.9.9,0,0,0,0-1.58c-.52-.38-1.09-.67-1.64-1h0l-1-.4c-.25-.43-.56-.38-.91-.12l-1.92-.4c-.46-.51-.92-1-1.47-.09l-3,.11c2,1.22,2.43,1.57,3,2.53a.89.89,0,0,1,0,1.1c-.2.24-.61.48-.59.68.06.53.6.41,1,.44A26.89,26.89,0,0,1,96.67,23a15.72,15.72,0,0,0,2.63,1.14,27.78,27.78,0,0,1,7.93,4.4c1.3.95,2.52,1.91,2.88,3.65a4.46,4.46,0,0,0,1.94,2.38,11.23,11.23,0,0,1,3.24,4.06,8.22,8.22,0,0,0,1.33,2,9,9,0,0,1,1.89,3.29c.78,2.22,2.29,4,3.48,6a2.07,2.07,0,0,0,1,.66c.6.22,1.23.35,1.85.51a49,49,0,0,1,5.67,1.9c1.94.74,2.77,2.33,3.36,4.1a4.2,4.2,0,0,1,0,1.66,2,2,0,0,1-1.42,1.76,11.07,11.07,0,0,1-4.24.59,2,2,0,0,1-1.89-1.23,5,5,0,0,1-.42-1.12c-.33-1.61-1.35-2.88-2.09-4.28A3.57,3.57,0,0,0,122.24,53a21.26,21.26,0,0,0-4.9-1.93,6.38,6.38,0,0,1-3.68-2.48c-.78-1-1.62-2-2.48-2.93a8.1,8.1,0,0,1-1.23-2,9.9,9.9,0,0,0-1.45-2.46A15.07,15.07,0,0,1,106,37.42a5.82,5.82,0,0,0-1.78-2.21,8,8,0,0,1-3.09-3.86A3.61,3.61,0,0,0,100,29.82a29,29,0,0,0-8.17-5.36A36.45,36.45,0,0,1,88,22.61a35,35,0,0,0-7.25-3.12c-1.82-.55-2.91-1.62-2.82-3.62a4.1,4.1,0,0,0-1-2.65c-1.61-2.16-1.28-4.52-.83-6.9a1.4,1.4,0,0,1,1.53-1.25,6.39,6.39,0,0,1,3.06.35h0l1.68-.09c.32,0,.66-.1.72-.48s-.26-.57-.57-.62A15.46,15.46,0,0,0,80.4,4c-4.72.1-9.42-.42-14.13-.58-2.46-.08-2.6-.63-4,2.31C61,8.44,59,10.7,57.89,13.45a5.11,5.11,0,0,1-1,1.34c-1.19,1.3-2.4,2.56-3.6,3.85a.93.93,0,0,1-1.07.3,13.69,13.69,0,0,1-4.83-2.58,22.61,22.61,0,0,0-5.64-4A6.83,6.83,0,0,1,38.07,7.6c-.39-1.55-.86-3.07-1.32-4.6A1.79,1.79,0,0,0,35,1.63c-2.47-.14-4.94-.32-7.41-.48-2-.13-4,.07-5.95-.49C20.71-.15,19.46,0,18.47,0s-2.72-.22-2.91,1.34c-.2,1.74,1.65,1.31,2.58,1.85.13.07.32,0,.48,0,2.76.5,3.63,1.89,2.6,4.48a4.61,4.61,0,0,0,.07,4.11c.85,1.64.37,3-.8,4.38-1.77,2-2.12,2.56-.84,3.75a33.86,33.86,0,0,1-4.89-1.46,13.9,13.9,0,0,1-5.56-4h0a4.91,4.91,0,0,1-.48-.43h0a3.57,3.57,0,0,0-.55-.48,3.5,3.5,0,0,1-.45-.07l-5.27,0a15.45,15.45,0,0,0-1.67.05.7.7,0,0,0-.67.59,5.77,5.77,0,0,0,.66,3.92A2.56,2.56,0,0,0,2.92,19.4h0l0,0,0,0h0a2.59,2.59,0,0,0,1.44.48c.63.8,1.71.83,2.47,1.41l.95.15.28.11h0a.27.27,0,0,0,.12.25h1a.33.33,0,0,0-.05.49l.06,0a20.29,20.29,0,0,1,3.44,1.84,3.63,3.63,0,0,1,.45.1l.47.4,0,0a1,1,0,0,0,1.16.26l.1-.08c-.08.12,0,.23.19.33l.5.1.49.39a2,2,0,0,1,.42.1l1.44.39a.41.41,0,0,0-.07.54l.09,0a1.45,1.45,0,0,1,.43.39l0,0a4.8,4.8,0,0,0,.56.45,2.12,2.12,0,0,1,.45.11,3.16,3.16,0,0,1,.44.38l1,.53.45.42a4.81,4.81,0,0,1,.42.48l.06.07a2.67,2.67,0,0,1,.47.42h0a3,3,0,0,1,1.37,1.61,8.36,8.36,0,0,0,3.06,3.88A4.57,4.57,0,0,1,28,37a22.24,22.24,0,0,0,2.58,4.28.47.47,0,0,1,0,.64.67.67,0,0,1-.43.14,7.54,7.54,0,0,0-2.37,0,.48.48,0,0,0-.18.78,4,4,0,0,0,.81.48,30.5,30.5,0,0,1,6,.35,5.32,5.32,0,0,0,2.14,0c.24-.06.45-.22.4-.5a.62.62,0,0,0-.29-.35,5.94,5.94,0,0,0-2.56-.5,3.5,3.5,0,0,1-2.12-1,11.82,11.82,0,0,1-2.5-3.77,8.1,8.1,0,0,0-2.23-2.76,7.48,7.48,0,0,1-2.62-3.36,4.23,4.23,0,0,0-1-1.61,17.76,17.76,0,0,0-5.73-3.8,3.35,3.35,0,0,0-2.9-1.42l0,0,0,0a21.68,21.68,0,0,0-5.74-2.9,1.32,1.32,0,0,0-.94-.49h0a6.9,6.9,0,0,0-3.87-1.43,2.67,2.67,0,0,0-1.45-.48,5.88,5.88,0,0,1-1.64-3.84.46.46,0,0,1,.67-.42,8.26,8.26,0,0,1,1.33,1,11.28,11.28,0,0,0,4.27,2.6,31,31,0,0,0,3,1,65.48,65.48,0,0,1,11.08,3.85c3,1.4,6.18,2.56,9,4.5a14.84,14.84,0,0,1,3.88,3.52,15.49,15.49,0,0,0,2.35,2.7,9.18,9.18,0,0,1,2.36,3,7.81,7.81,0,0,0,.81,1.19c1.51,2.17,3.57,3.87,5.23,5.92.9-.93,1.11-1.51.42-2.44a14.36,14.36,0,0,1-2-4.29,3.63,3.63,0,0,0-1.9-2.29,4.79,4.79,0,0,1-2.86-3.86,2.48,2.48,0,0,0-.86-1.66A35.37,35.37,0,0,0,31,24.77a30.29,30.29,0,0,1-5.52-3.32,4.6,4.6,0,0,0-2.84-1.12c-1.45-1.65-1.45-1.8.06-3.22a2.54,2.54,0,0,1,.77-.55c.17-.07.43.07.64.14a.3.3,0,0,1,.15.18c.54,2,2.09,2.68,3.85,3.18a26.09,26.09,0,0,1,5.71,2.43A55.74,55.74,0,0,0,39.23,25a14.34,14.34,0,0,1,2.7,1.53c1.31.91,2.6,1.85,3.94,2.72a3.41,3.41,0,0,1,1.71,2.17A6.41,6.41,0,0,0,50.2,35a6.91,6.91,0,0,1,2.08,2.56,12.3,12.3,0,0,0,2.55,3.74,4.27,4.27,0,0,1,.74.94,1,1,0,0,1,.09,1.12.91.91,0,0,1-.87.29c-1.11-.09-2.22-.23-3.34-.29a3.47,3.47,0,0,0-2.53.44h0c.41.86,1.21.92,2,1,3.48.22,7,.41,10.45.67a34.09,34.09,0,0,1,6.34.89c.77.38,1.58.55,2.09-.3.41-.68-.25-1-.74-1.22l-1.35-.11c-.56,0-1.12,0-1.67-.05a1.9,1.9,0,0,1-1.55-1A15.28,15.28,0,0,0,62,40.18a5.46,5.46,0,0,1-1-1.64,11.86,11.86,0,0,0-3.47-4.49,5.74,5.74,0,0,1-1.77-2.5,5,5,0,0,0-1.89-2.42,34.94,34.94,0,0,0-8.13-5,23.77,23.77,0,0,1-4.71-2.34A11.27,11.27,0,0,0,38,20.46c-1.07-.35-2.14-.68-3.17-1.11a3.66,3.66,0,0,1-2.41-4,.64.64,0,0,1,.89-.5,5.12,5.12,0,0,1,1.15.85,12.89,12.89,0,0,0,6.64,3.61,119,119,0,0,1,14,4.83,33.13,33.13,0,0,1,9.38,5.63,7.06,7.06,0,0,1,2.16,2.51,6.11,6.11,0,0,0,1.57,1.79A14.06,14.06,0,0,1,71,37.44a14.17,14.17,0,0,0,3,3.74,8.45,8.45,0,0,1,1.85,2.19h0A21,21,0,0,0,79,46.5a2.77,2.77,0,0,0,1.06.48.64.64,0,0,0,.73-.87c-.18-.44-.4-.87-.6-1.3a5,5,0,0,1-.37-1.13,4.66,4.66,0,0,0-1.33-3.23,5.08,5.08,0,0,1-1-2.41,4,4,0,0,0-2.15-2.68,4.74,4.74,0,0,1-2.91-3.83,3,3,0,0,0-1.24-2c-1.62-1.29-3.21-2.64-4.87-3.87a13,13,0,0,0-2.53-1.34,14.27,14.27,0,0,1-3.67-2.22,10.2,10.2,0,0,0-2.83-1.79,7.55,7.55,0,0,1-.87-.4c-1.17-.65-1.31-1.3-.49-2.28.31-.37.65-.7,1-1a19.51,19.51,0,0,0,3.88-5.44c.83-1.73,2.26-3.07,2.92-4.83.66,0,.54.4.51.67,0,.48-.17,1-.25,1.42a5.27,5.27,0,0,0,.72,4.12,7,7,0,0,1,1.2,3.35,7.72,7.72,0,0,0,.34,1.4,3.16,3.16,0,0,0,2,2.19c1.21.42,2.4.88,3.62,1.28a12.06,12.06,0,0,1,3,1.37,23.86,23.86,0,0,0,4.5,2.23,34.45,34.45,0,0,1,8.15,5,4.1,4.1,0,0,1,1.61,2,7.73,7.73,0,0,0,3,3.93,6.89,6.89,0,0,1,2,2.36,12.08,12.08,0,0,0,2.66,3.94,2.3,2.3,0,0,1,.55.78,22.31,22.31,0,0,0,2.29,3.92c.27.36,0,.8-.46.85a10.09,10.09,0,0,1-3.1-.2,9.1,9.1,0,0,0-2.85-.14h0l2.82,3.65c.19.4.7.3,1,.59a4,4,0,0,1,.46.07c1.43,1.69,3.4,1,5.16,1.11,5.48.21,8.88,2.58,10.33,7.27a4.24,4.24,0,0,1-.95,4.66c-2.16,2-3.94,4.39-6.24,6.26a13,13,0,0,0-4.6,8.13c-.79,4.48-1.38,9-2,13.49a5.22,5.22,0,0,1-1.72,3.56l-2,0c-2.61-.26-2.64-.24-2.18,1.53a18.62,18.62,0,0,1,3.34,0c2.15.16,4.3.27,6.45.38l11.49.55a27.43,27.43,0,0,0,8.79-.77,7.5,7.5,0,0,0,5.9-6.95c0-.16,0-.32.06-.48a4.88,4.88,0,0,0-1.44-4.37,10.57,10.57,0,0,0-4.17-2.72c-.64-.23-1.4-.23-1.92-.8.42-.69,1.13-.62,1.71-.81a12.77,12.77,0,0,0,8-7.44,10.49,10.49,0,0,1,4.42-5.16,20,20,0,0,0,4.47-4A1,1,0,0,0,140.14,62.94ZM30.53,14.08c-1.28,0-2.56-.05-3.83-.1a2.12,2.12,0,0,1-1.91-1.24,5.74,5.74,0,0,1-.86-4.33c.34-1.29.07-2.71.72-3.93.35,0,.44.28.51.5a11.4,11.4,0,0,1,.37,1.39,8,8,0,0,0,4.54,6.34c.46.22,1.06.39,1.25,1C31.18,14.12,30.82,14.08,30.53,14.08ZM121.45,88.7A15.58,15.58,0,0,1,120.39,94c-.89,2.1-2,3.34-4.83,2.88-.86-.15-1.74-.2-2.61-.33a1,1,0,0,1-.89-1,6.84,6.84,0,0,1,0-1.43c.31-2.53.66-5.06,1-7.59.12-1,.18-1.91.31-2.86.2-1.48.75-2,2.25-1.77,3.46.44,5.65,1.86,5.83,6C121.46,88.14,121.45,88.38,121.45,88.7Zm11.88-24.81a13.24,13.24,0,0,1-1.27,1.43c-2.27,2.13-4.55,4.24-6.82,6.38a3.18,3.18,0,0,0-.91,1.1c-.59,1.67-1.77,3-2.45,4.65-1.12,2.69-2.88,3.82-6,3.78-.18,0-.58-.06-1-.15a1.08,1.08,0,0,1-.91-1.22,11.78,11.78,0,0,1,.44-2.6,13.9,13.9,0,0,1,2.9-4.92c2.23-2.38,4.68-4.56,7-6.86a10.31,10.31,0,0,0,2.47-2.91,1.55,1.55,0,0,1,1.33-.88,9,9,0,0,1,4.7.65A1,1,0,0,1,133.33,63.89Z"/><path class="cls-1" d="M97.39,71a6.42,6.42,0,0,0,1.83-1.88,18.07,18.07,0,0,1,2.55-3.46,2.72,2.72,0,0,0,.41-3.13,4.28,4.28,0,0,0-1.28-1.7,14,14,0,0,1-2.76-3,3.74,3.74,0,0,0-.79-.89,21.62,21.62,0,0,1-3.25-3.51L86.49,51c-.77-.31-1.56-.72-1.88.54a2.33,2.33,0,0,1,.44.1,5.22,5.22,0,0,0,.54.38,1.12,1.12,0,0,1,.36,0,3.53,3.53,0,0,1,2.71,1.76,7,7,0,0,1,1,4.36,13.29,13.29,0,0,1-.56,2.32,4.75,4.75,0,0,1-2.76,3.11A13.78,13.78,0,0,0,82,66.49a32.56,32.56,0,0,1-2.64,2,32.4,32.4,0,0,0-3.85,3.92,1.76,1.76,0,0,0-.4.85,13.8,13.8,0,0,0-.27,4.75c.55,2.65,1,5.31,1.83,7.91s1.44,5.39,2.13,8.09a4.17,4.17,0,0,0,.93,2.16h0l1.86-1c.68-.27.07-1.06.57-1.4h0c.27-.27.18-.71.46-1h0c.3-.23.16-.7.51-.89l0-.06A9,9,0,0,1,84.39,89c1.44-2.58,3.06-5.08,4.26-7.77C90.58,76.94,93.76,73.8,97.39,71Zm-9.34,8a1.2,1.2,0,0,1-.26.4.69.69,0,0,1-.4.2.51.51,0,0,1-.36-.24,6.31,6.31,0,0,1-.46-2.47c.17-1.21.32-2.32.48-3.42a2.06,2.06,0,0,1,.65-1.25c1.46-1.35,2.63-3,4.36-4.07a34.33,34.33,0,0,0,3.51-2.87A20.8,20.8,0,0,1,99.78,63c.45-.22.92.21.94.76a2.57,2.57,0,0,1-.63,1.76c-2,2.5-3.76,5.08-6.38,7.06A17.63,17.63,0,0,0,88.05,79Z"/><path class="cls-1" d="M61.35,74.28a80.66,80.66,0,0,0,7.06-7.72c1.66-2.15,1.94-4.27-.08-6.09-1.67-1.5-3.1-3.19-4.64-4.8A8.47,8.47,0,0,0,59.07,53c-.76.09-1.49-.54-2.41-.12.27.6.5,1.11.71,1.62a7.85,7.85,0,0,1,.26,5.4,5.12,5.12,0,0,1-2.85,3.64A16.7,16.7,0,0,0,51,66a17,17,0,0,1-2.48,1.88c-2,1-3.13,2.94-4.72,4.38a1.07,1.07,0,0,0-.34.62c-.1,1.89-.79,3.73-.29,5.69.83,3.26,1.48,6.55,2.26,9.82.39,1.63.87,3.24,1.36,4.85.22.73.72.84,1.5.41a2.19,2.19,0,0,0,.34-.34,7.31,7.31,0,0,0,2.85-3.08C54.58,84.79,56.84,78.78,61.35,74.28Zm-11,2.85a18.12,18.12,0,0,1,.54-4,1.67,1.67,0,0,1,.39-.85c1.42-1.38,2.43-3.21,4.33-4.07a6,6,0,0,0,1.67-1.35,14.19,14.19,0,0,1,4.25-3.06,5.7,5.7,0,0,0,2.78-2.53A1,1,0,0,1,66,61a4,4,0,0,1,1.53,2.87A1.6,1.6,0,0,1,67,65.22,18.37,18.37,0,0,0,64,69.43a7,7,0,0,1-2,2,23.57,23.57,0,0,0-7.71,9,7.15,7.15,0,0,1-.54,1.07c-.51.69-.76,1.6-1.64,2-1-.55-.78-1.64-1-2.5A14.55,14.55,0,0,1,50.4,77.13Z"/></g></g></svg>