<svg xmlns="http://www.w3.org/2000/svg" viewBox="0 0 344.23 81.55"><defs><style>.cls-1{fill:lime;}</style></defs><g id="Calque_2" data-name="Calque 2"><g id="Calque_1-2" data-name="Calque 1"><path class="cls-1" d="M325,49.69V48.25l.46.07c.47.09.95.25,1,.78.11.72-.5.86-1,1.07A5.44,5.44,0,0,0,325,49.69Z"/><path class="cls-1" d="M321.84,41.64c.25,0,.52.09.52.37s-.27.36-.52.36-.51-.08-.51-.36S321.6,41.66,321.84,41.64Z"/><path class="cls-1" d="M325.57,43c.19-.06.32,0,.36.18a.24.24,0,0,1-.25.31c-.07,0-.2-.07-.19-.1A1.8,1.8,0,0,1,325.57,43Z"/><path class="cls-1" d="M320.16,48.25l-.48-.48Z"/><path class="cls-1" d="M325,49.69l.48.48Z"/><path class="cls-1" d="M314.56,64.29l.48.48Z"/><path class="cls-1" d="M317.23,81.05c0,.24-.09.46-.34.49s-.53-.19-.5-.53a.4.4,0,0,1,.44-.4C317.08,80.62,317.2,80.81,317.23,81.05Z"/><path class="cls-1" d="M299.09,24.59a1,1,0,0,0-.88-.66c-3.49-.39-7-.28-10.51-.37-1,0-2.19.11-2.44,1.44s.84,1.74,1.82,2.1c2.49.92,3.51,2.74,3.66,5.33.31,5.11.05,10.21.17,15.32a30.64,30.64,0,0,1-.47,8.1c-.9,3.62-2.93,6.39-6.59,7.24C275.46,65,269,62.56,267.46,52.78a12.19,12.19,0,0,1-.14-1.91c.11-5-.22-10,.08-15.06.16-2.65-.92-5.46.73-8,1-1.1,1.81-2.26,1.28-3.87a2.18,2.18,0,0,0-.43-.53,6.73,6.73,0,0,0-1.19-.62,3.42,3.42,0,0,1-.49-.44c-.24-.25-.47-.5-.71-.74-1.06-1-2-2-2.1-3.57,0-.89-.76-1.28-1.18-1.89-1.84-2.65-4.59-3.63-7.48-4.48A20.94,20.94,0,0,1,249,8.25c-.67-.52-1.14-1-.59-2,1.25-2.31.43-3.55-2.32-3.38a98,98,0,0,1-13.16,0c-1.21-.09-2.59-.06-2.73,1.59s1,2,2.33,2.13a16.72,16.72,0,0,1,8,3,45.16,45.16,0,0,0,10.79,5.6,9.72,9.72,0,0,1,6.21,6c1.18,3.54,2.6,7.09,2.56,10.89,0,3,.38,6.06.09,9.09a4.9,4.9,0,0,0,1,3.38c.11,1.56.33,3.12.3,4.68a71.73,71.73,0,0,0,.28,7.33s-.07.06-.09.16,0,.2.16.29.09.29.13.44a2.67,2.67,0,0,0,.28,2.29c1.63,2.06,3,4.38,5.71,5.34h0a5.93,5.93,0,0,0,4.47,1.55h0c1.06.67,2.13,1.29,3.43.63,2.38-.22,4.79-.27,7.13-.69,5-.9,8.55-3.65,10.25-8.56a20.45,20.45,0,0,0,.94-6.11,7.23,7.23,0,0,1,.22-2.36c-.06-1.74-.15-3.49-.18-5.24,0-2.69,0-5.39,0-8.09,0-1.83-.05-3.66.1-5.48.19-2.2,1.12-4,3.49-4.58a5.55,5.55,0,0,0,.89-.32C299.14,25.56,299.16,25.09,299.09,24.59Z"/><path class="cls-1" d="M342.74,63.22a13.26,13.26,0,0,1-6.62-4.06c-3.62-3.68-6-8.28-9.07-12.33a2.64,2.64,0,0,1-.31-3.15c1.58-2.42,2.65-5.19,4.92-7.14,1.13-.65,1.3-2,2-2.89l.22-.24a3.2,3.2,0,0,1,.47-.43l.51-.37c.36-.39.42-.94.78-1.33l.4-.45.44-.42.5-.36a4.38,4.38,0,0,0,2.07-1.5,4.7,4.7,0,0,1,.54-.37,7,7,0,0,1,1.31-.51,2.15,2.15,0,0,0,.74-.17c1.18-1.41,1.45-1.94.69-2.6-.42-.08-.84-.18-1.27-.3l-.18,0a7.44,7.44,0,0,0-.94,0c-.71,0-1.42.12-2.14.14a4.31,4.31,0,0,1-1.45-.19,2.15,2.15,0,0,1-1.29-.28h0a37.62,37.62,0,0,1-6.19-.06,1.39,1.39,0,0,0-.8,1.09,3,3,0,0,0,0,.3,4,4,0,0,1,.86.7,5.12,5.12,0,0,1,.42.49,4,4,0,0,1,.41.58c.1.16.18.32.26.48,1.27,1.13,1.19,2,0,3.94a4.7,4.7,0,0,1-1,1.49c-1.22,1.81-2.57,3.51-3.79,5.32-1.36,2-2.18,2-3.6.07-2.16-3-4-6.14-6-9.22a1.62,1.62,0,0,1,.42-2.5,1.59,1.59,0,0,0,.84-2,1.57,1.57,0,0,0-.15-.32,3,3,0,0,1-.67,0c-3.51-.44-6.92.49-10.42.57a5,5,0,0,1-2.08-.38l-.61,0c-.55,0-.94.27-.88.58a.81.81,0,0,0,.65.61,5.35,5.35,0,0,0,.69.17A6.84,6.84,0,0,1,308,29c.61.83,1.26,1.65,1.82,2.52,3.14,4.89,6.24,9.82,9.42,14.69a1.82,1.82,0,0,1-.07,2.36c-2.44,3.55-5,7-7.7,10.36-1,1.24-1.84,2.64-3.38,3.32-1.06.11-1.5,1.11-2.29,1.6l0,0c-.47.59-1.26.17-1.79.58l-1.89.3a1.14,1.14,0,0,0,1.05.8,19.44,19.44,0,0,0,4,.18,10.87,10.87,0,0,1,3.73.14h.52a3.69,3.69,0,0,0,2.08,0c.76-.34,2.3.38,2.23-1-.07-1.26-1.5-.2-2.15-.72a1.78,1.78,0,0,1-1.67-.74,1.89,1.89,0,0,1,.05-1.83,7.06,7.06,0,0,1,.84-1.43c2-2.58,3.94-5.21,5.72-8a21.15,21.15,0,0,1,1.8-2.23c.64-.73,1.1-.67,1.73.15q.14.18.27.39c1.2,1.78,2.43,3.55,3.58,5.36A19.41,19.41,0,0,0,328,58.71q1.73,1.83,3.33,3.75a1.09,1.09,0,0,1-.46,1.77c-.55.28-1.3,0-1.83.74a7.12,7.12,0,0,0,2.8.3,10,10,0,0,1,3.09.09c.31.38.62.34.92,0a7.18,7.18,0,0,1,2.88-.21c1.17,1.24,2.61,1,4,.67.74-.14,1.46-.42,1.44-1.33S343.47,63.37,342.74,63.22Z"/><path class="cls-1" d="M70.39,65.65c-.79-.13-1.58-.22-2.37-.33-2.6-.37-3.27-1-3.48-3.71-.11-1.43-.09-2.87-.11-4.31,0-.72,0-1.43,0-2.15-.06-2.72-.18-5.44-.16-8.15a12,12,0,0,0-.55-3.53c-.54-1.77-1.48-3.37-2.13-5.07a8.6,8.6,0,0,0-2.67-3.57,14,14,0,0,0-4.37-2.45,27.32,27.32,0,0,1-8.11-4.06,10.8,10.8,0,0,0-1.82-1.16,11,11,0,0,1-4.5-4.51,10.46,10.46,0,0,0-3.24-3.79,6.48,6.48,0,0,1-2.33-3,8.6,8.6,0,0,0-1.84-2.77c-.62-.63-1.23-1.26-1.8-1.93A5.73,5.73,0,0,1,30,9.78,1.45,1.45,0,0,1,31,7.7a8,8,0,0,1,1.89-.24,20.2,20.2,0,0,1,8.66,1.61c3.26,1.42,6.31,3.15,8.17,6.38a5.12,5.12,0,0,0,1,1.08,2.06,2.06,0,0,0,.62.34.26.26,0,0,0,.23,0c.08-.12.21-.31.17-.38-1.1-1.94-1.89-4.06-3.53-5.67a27.16,27.16,0,0,1-3.83-4.9A5.49,5.49,0,0,1,42,3.55c-.32-.53-.76-.58-1.16-.09a3.73,3.73,0,0,1-3.11,1.43c-3.58,0-7.15.15-10.72.19A80,80,0,0,1,17.7,5a63.89,63.89,0,0,1-8.53.1A6.33,6.33,0,0,1,4.66,3.34c-1.1-1-2.28-1.95-3.42-2.93C.54-.19.54-.21,0,.9A4,4,0,0,0,3.57,4l0,0c1,1,.42,2.6,1.28,3.68L5,7.77a1.68,1.68,0,0,1,.4.3L6,9a2.89,2.89,0,0,0,.55.5l0,0a1.68,1.68,0,0,0,.65.43,1.11,1.11,0,0,1,.36,0C8,11,8.27,12.28,9.34,13.05h0a3.89,3.89,0,0,0,.53.46h0c.17.14.33.29.49.44l0,0a2.84,2.84,0,0,1,.47.37l.18.48c-.13.81.59,1,1,1.34h0c.15.15.31.29.47.43a2.36,2.36,0,0,1,.1.46,4.69,4.69,0,0,1,.42.47l.14.11c2.17,0,1.86-1.45,1.26-2.63-.84-1.64-1.75-3.19-1.75-5.11,0-2.11,1.11-3.35,3-2.77s3.89.2,5.73.91A4.3,4.3,0,0,1,23.84,9.5c1.3,1.3,2.55,2.65,3.81,4a11.91,11.91,0,0,1,2.17,3.14,7.26,7.26,0,0,0,2.44,2.91A7.79,7.79,0,0,1,35,22.82a10,10,0,0,0,3.36,4,43.67,43.67,0,0,0,7.33,4.5c2,.93,4.11,1.77,6.16,2.66a1.14,1.14,0,0,0,1,.42,13.58,13.58,0,0,1,2.57,2.15,4.17,4.17,0,0,1,.8,1.18c.53,1.07,1,2.17,1.51,3.26a15.92,15.92,0,0,1,1.61,6.47c0,4.47.15,8.94.2,13.42a13.63,13.63,0,0,1-.21,1.9A2.74,2.74,0,0,1,57,65.2a25.31,25.31,0,0,1-2.62.31,1.14,1.14,0,0,0-.86.32c-.18.22.3.58.85.61s.8,0,1.2,0c2.48,0,5,0,7.43.12s4.94-.38,7.42-.27c.08,0,.25-.23.24-.34A.45.45,0,0,0,70.39,65.65Z"/><path class="cls-1" d="M207.58,32.85a3.67,3.67,0,0,0,0-3,20.44,20.44,0,0,0-1.62-3.2,6.06,6.06,0,0,1-1.34-3,1.36,1.36,0,0,0-.35-.86c-1.37-1.2-2.51-2.68-4.37-3.25s-3.76-1.32-5.65-2a9.85,9.85,0,0,1-3.53-1.94,16.68,16.68,0,0,0-2.91-2.1,5.81,5.81,0,0,1-2.32-2.64A3.7,3.7,0,0,1,187,5.94c.48-.27,1-.51,1.47-.77a5.49,5.49,0,0,0-4.31-1,42.89,42.89,0,0,1-9.34,0c-.53-.06-1.14-.18-1.48.44-.19.35.24.66,1.2.84.78.15,1.58.26,2.36.39a14.46,14.46,0,0,1,3.21,1,3.85,3.85,0,0,1,2,1.93c.25.5.4,1,.63,1.55a6.57,6.57,0,0,0,2.2,3.08c1.48,1,2.82,2.11,4.21,3.18a7.15,7.15,0,0,0,1.87,1c2,.71,3.91,1.41,5.9,2a12.12,12.12,0,0,1,4.81,3.06,1.46,1.46,0,0,1,.56,1.26,3,3,0,0,0,.94,2.37,13.93,13.93,0,0,1,2.21,4,3.36,3.36,0,0,1-.07,2.55c-1.44,3.73-2.9,7.44-4.27,11.2-1.59,4.35-3.18,8.71-5.16,12.91-.4.85-.42,1.89-1.26,2.53-1.19-.38-1.12-1.62-1.67-2.44a10,10,0,0,1-.73-1.51c-2-4.36-4-8.72-6-13.09-1.87-4.15-3.85-8.25-4.91-12.73a10.79,10.79,0,0,0-4-6.1,21.22,21.22,0,0,0-5-2.82,33.83,33.83,0,0,1-6-2.91c-1.2-.78-2.49-1.45-3.76-2.12a21.17,21.17,0,0,1-5.62-4,17.83,17.83,0,0,0-3.78-3.3,4.2,4.2,0,0,1-.88-.81.85.85,0,0,1,.16-1.26c.46-.31,1-.55,1.42-.86a.46.46,0,0,0-.16-.75,6.72,6.72,0,0,0-1.18-.1c-2.24.06-4.48.13-6.71.23a13.21,13.21,0,0,1-3.82-.16c-.45-.47-1-.25-1.58-.35A1.22,1.22,0,0,0,139,5.1c-.32.85.29,1.35.88,1.73a5.18,5.18,0,0,0,1.34.47A19.4,19.4,0,0,1,148.55,11a5.62,5.62,0,0,0,2.87,1.17l3.65,3,0,0A21.13,21.13,0,0,1,160.18,18a.46.46,0,0,0,.57.37c1.11.21,1.73,1.17,2.64,1.68,1.52,2.07,4.78,3.39,6.93,2.81a11.4,11.4,0,0,1,4.12,3.52A14.9,14.9,0,0,1,177,32.51a10.92,10.92,0,0,0,.94,3c1.87,3.85,3.37,7.88,5.24,11.74,0,0,0,0,0,.15s.05.18.16.25a53.64,53.64,0,0,1,3,6.51c-.1.63,0,1.18.68,1.41q2.25,4.6,4.51,9.21a14.15,14.15,0,0,0,.89,1.68,1.17,1.17,0,0,0,2,0,11.56,11.56,0,0,0,.71-1.51c1.32-3.07,2.36-6.26,3.94-9.22a1.87,1.87,0,0,0,1.15-1c1.44-2.48,1.43-5.55,3.27-7.89.44-.56-.07-1.36-.12-2a7.61,7.61,0,0,1,.69-2.28C205.16,39.26,206.35,36,207.58,32.85Z"/><path class="cls-1" d="M264.66,4.77a17.27,17.27,0,0,1,6,2.29,4.07,4.07,0,0,0,.88.39,22.91,22.91,0,0,1,4.67,2.4,5,5,0,0,1,1.67,1.32c1.14,1.72,2.88,2.7,4.44,3.91a3.1,3.1,0,0,1,.38,1.84,7.88,7.88,0,0,1,1.39,2.2,1.49,1.49,0,0,0,2,.72,5.56,5.56,0,0,0,1.09-.48,23.09,23.09,0,0,1,3.64-1.77,2.69,2.69,0,0,0,.59-.38.46.46,0,0,0-.12-.78c-.53-.12-1.08-.18-1.63-.26-.61-.29-1.3.25-1.89-.2h0a9.78,9.78,0,0,1-2.75-.23,2.28,2.28,0,0,1-1.62-.78h0c.4-.17.7-.43.62-.89s-.24-.59-.33-.9c-.17-.63,0-.91.52-1.11a23,23,0,0,1,4.91-1c.31,0,.68-.07.78-.42s-.25-.54-.54-.66A12.91,12.91,0,0,0,285,8.78,21.24,21.24,0,0,1,282,8.33c-.63-.13-.79-.5-.44-1.26.26-.56.19-.89-.29-1.19-.68-.42-1.39-.78-2-1.23a6,6,0,0,0-4.53-1,21.29,21.29,0,0,1-4.3.14c-1.83-.07-3.66,0-5.49,0-.32,0-.68.05-.77.4S264.35,4.71,264.66,4.77Z"/><path class="cls-1" d="M281.36,4.43c1.38.81,2.74,1.65,4.16,2.37A12.51,12.51,0,0,1,288,8.22a9.43,9.43,0,0,0,3.72,1.59,1.69,1.69,0,0,0,1.8-.33c1.38-1.56,3.23-2,5.14-2.3A2.34,2.34,0,0,0,300,6.7a.76.76,0,0,0,.12-.41.25.25,0,0,0-.14-.18,4.82,4.82,0,0,0-1.15-.28c-1.76,0-3.52,0-5.27,0-3.14,0-6.24-.12-9.09-1.69a5.33,5.33,0,0,0-2.89-.56c-.13.07-.41.14-.5.31S281.15,4.31,281.36,4.43Z"/><path class="cls-1" d="M175.11,64.7c-2.77-1-4.22-3.31-5.38-5.82-.37-.8-.82-1.56-1.19-2.36-4.29-9.18-9-18.18-12.34-27.77A4.27,4.27,0,0,0,153.94,26c-1.38-.52-1.76-2.41-3.18-2.66-3.15-.55-5.81-2.15-8.56-3.56-.66-.63-1.52-1-2.21-1.55-2.3-1.65-4.94-2.84-7.06-4.75a6.61,6.61,0,0,0-3.27-1.69c-.56-.31-1.1-.65-1.67-.93a17.12,17.12,0,0,1-4.81-3.54,14.8,14.8,0,0,0-3.8-2.87.88.88,0,0,0-.47.93c0,.38.11.75.17,1.12-.11,1.5-.53,3.07.91,4.24h0c.3.24.26.7.6.92l0,0a3.89,3.89,0,0,0,.53.46h0c.36.4.36,1,.61,1.4l0,1c-.79,1.24-.36,2.13.81,2.81h0a16.14,16.14,0,0,0,1.73,2c5,3.82,5,3.85,11.06,6A12.5,12.5,0,0,1,140,28a2.83,2.83,0,0,1,1.21,2.2c0,.76.54,1.3.9,1.92.59,1.05,1.13,2.12,1.76,3.13a3.87,3.87,0,0,1,.1,3.87c-1.53,3.69-3,7.41-4.36,11.16-1.28,3.45-2.9,6.75-4.37,10.12a15.73,15.73,0,0,1-1.34,2.27c-1.88,2.85-4.57,3.74-7.7,2.45a15.53,15.53,0,0,1-5.6-3.62c-.72-.76-1.46-1.48-2.17-2.25-2.15-2.36-4.13-4.86-6-7.43a66.15,66.15,0,0,1-4.05-5.94c-.95-1.6-.95-1.68.63-2.88a2.31,2.31,0,0,0,.19-.14c.83-.72,2-1.23,2.12-2.47s-.75-2.39-1.38-3.49a4.77,4.77,0,0,0-.67-.68c-.32-.35-.65-.71-1-1.07a1.76,1.76,0,0,1-.48-2,1.24,1.24,0,0,0-.09-1.36c-1.12-1.25-2.16-2.6-3.87-3.11-1.31-.38-2.61-.77-3.9-1.18-1.07-.35-2.13-.71-3.18-1.1A3.33,3.33,0,0,1,94.89,25,4.83,4.83,0,0,0,93,23.16a5.55,5.55,0,0,1-2.62-3.83c-.11-.46-.26-.92-.37-1.39a6.5,6.5,0,0,0-2.45-3.73,21.72,21.72,0,0,1-3.27-3.16,8.32,8.32,0,0,0-2.85-2.16c-1.6-.73-3.19-1.49-4.78-2.23l-.54,0c-.3-.12-.66-.06-.92-.3v0a.31.31,0,0,0-.42-.07,34.7,34.7,0,0,0-6.42-.73c-2.87.11-5.75.27-8.62.37-1.35,0-2.72,0-4.07,0-1.51-.07-3-.24-4.54-.35-.37,0-.88-.13-.92.44s.36.69.74.82A7.8,7.8,0,0,0,52.11,7c.71.12,1.43.18,2.13.34A10.4,10.4,0,0,1,61.56,13a8.35,8.35,0,0,0,2.29,3,14.31,14.31,0,0,1,3.94,4.75,10,10,0,0,0,3.33,3.39c.66.44,1.41.77,2,1.27a27.36,27.36,0,0,0,9.12,4.61,13.07,13.07,0,0,1,5.2,3.34,3.07,3.07,0,0,1,.87,1.11c.54,1.69,1.54,3.15,2.22,4.77a9.88,9.88,0,0,1,1,5.34,6.94,6.94,0,0,0,0,1.44c.39,4.78.16,9.58.29,14.37a13.69,13.69,0,0,1-.22,2.38,2.63,2.63,0,0,1-2.55,2.42c-.63.08-1.26.2-1.89.33a.49.49,0,0,0-.32.29c-.08.31.17.41.41.45.4.07.79.12,1.19.15,3.75.24,7.5.24,11.26.2.51.41,1.07.18,1.6.08s1.29.22,1.31-.63a1.62,1.62,0,0,0-1-1.54,2.66,2.66,0,0,0-.68-.2c-2.32-.43-3.16-2-3.1-4.14.09-3.59-.19-7.17-.05-10.76.08-1.77,1.07-2.35,2.66-2.34,1.75,0,2.66,1.17,3.56,2.45,3.44,4.88,6.34,10.2,10.78,14.29,2,1.83,3.51,4.53,6.91,4.25s6.88.07,10.31-.24a4.92,4.92,0,0,1,1.89-.53,57.87,57.87,0,0,1,10.53,0,1.65,1.65,0,0,0,.34-.92c.2-2-1.88-1.77-3.14-2.18-2.56-.83-3.36-2.19-2.41-4.74.89-2.39,1.94-4.73,2.88-7.1a4.38,4.38,0,0,1,4.17-3c3-.19,6.06.18,9.1.24a2.72,2.72,0,0,1,2.37,1.43c1.84,3.36,3.38,6.87,4.89,10.39a2,2,0,0,1-1.26,2.88c-1,.36-2.08.72-1.84,2.09a1.45,1.45,0,0,0,.63,1,4.18,4.18,0,0,1,.79,0,14.91,14.91,0,0,1,6.68,0c2.78-.25,5.56-.44,8.38-.42a1.45,1.45,0,0,0,.2-.54A1.59,1.59,0,0,0,175.11,64.7Zm-72.81-21a15.93,15.93,0,0,1-4,0c-1.35-.17-1.56-.25-1.78-1.51-.53-3.06-2.35-5.57-3.42-8.4C91.81,32.49,90.75,31,89,30.25c-2-.78-4-1.58-6-2.35A11.45,11.45,0,0,1,80,26.28a32.72,32.72,0,0,0-3.18-2.14A12.34,12.34,0,0,1,72,19.29a9.75,9.75,0,0,0-2.93-3.42,4.57,4.57,0,0,1-1.18-1.18c-1.25-1.94-2.48-3.9-3.65-5.89C63.69,7.89,64,7.29,65,7a5.35,5.35,0,0,1,1.89-.22c3.49.49,7,1.05,10,3a6.66,6.66,0,0,1,2,1.68,14.59,14.59,0,0,0,3.45,3.3,9,9,0,0,1,3.09,3.88,11.32,11.32,0,0,0,4,5A8.16,8.16,0,0,1,91.15,25a7.2,7.2,0,0,0,3.39,2.16c1.59.54,3.15,1.17,4.76,1.62a10.32,10.32,0,0,1,4.62,2.89,1.73,1.73,0,0,1,.62,1.7,2.27,2.27,0,0,0,.75,2.17,16,16,0,0,1,2.27,3.65,2.2,2.2,0,0,1-.88,3.27A8.26,8.26,0,0,1,102.3,43.69Zm54.17,2.53c-.54.75-1.81.18-2.71.39l-7.46.08a9.67,9.67,0,0,1-1.2-.08c-1.53-.18-1.66-.38-1.15-1.78.74-2,1.47-4.06,2.26-6.07a4.07,4.07,0,0,0,.07-3,12.63,12.63,0,0,0-1.67-3.42,4.61,4.61,0,0,1-1.25-3,1.37,1.37,0,0,0-.53-1,11.83,11.83,0,0,0-4.29-3c-1.45-.45-2.86-1-4.3-1.49a10.58,10.58,0,0,1-4.76-2.63,12.64,12.64,0,0,0-2.33-1.67,6.62,6.62,0,0,1-3-5.92.69.69,0,0,1,.32-.56.91.91,0,0,1,.64.13,1.88,1.88,0,0,1,.56.45c2.25,2.6,5.18,4.23,8.15,5.8a1.43,1.43,0,0,1,.21.12,51.88,51.88,0,0,0,10.08,5A13.83,13.83,0,0,1,149,27.9a10.1,10.1,0,0,1,2.42,4.37,49.56,49.56,0,0,0,4.23,10.66,1.23,1.23,0,0,1,.17.45C155.9,44.38,157.13,45.32,156.47,46.22Z"/><path class="cls-1" d="M255.62,65a15,15,0,0,1-6.38-7.79,4.29,4.29,0,0,0-2.12-2.67h0c-.92-2.57-.91-5.58-3.5-7.36l-.17-.46a2.91,2.91,0,0,0,0-2.16c-2.15-2.92-3-6.56-5.35-9.36a27.23,27.23,0,0,1-3.76-8.24c-.18-.77-.41-1.54-.65-2.3a12.4,12.4,0,0,0-7.41-8.25c-.74-.3-1.49-.57-2.22-.9-1.09-.49-2.2-1-3.25-1.53-2.17-1.18-4.34-2.38-6.45-3.67a18.75,18.75,0,0,1-5.45-4.22A11.75,11.75,0,0,0,207,4.29a2.93,2.93,0,0,0-2.39-.78,13.24,13.24,0,0,1,1.26,4,21.13,21.13,0,0,0,.9,2.72,13.59,13.59,0,0,0,6.57,6.11c2.1,1,4.29,1.72,6.49,2.48a1.11,1.11,0,0,1,.16.07h0c.1,0,.19-.05.29-.06a5,5,0,0,1,3.66,1.12,5.12,5.12,0,0,1,1.79,3.38,1,1,0,0,1,0,.17.84.84,0,0,1,.06.14,12.48,12.48,0,0,1,.61,2.85,7,7,0,0,1,.83,2.73,4.93,4.93,0,0,1-.4,1.86c-2.54,6.72-5,13.46-8.13,19.94-.68,2.7-2,5.19-2.82,7.85a9.14,9.14,0,0,1-4.9,5.94c-.65.29-1.63.09-1.86,1.11a1.17,1.17,0,0,0,0,.5,5.18,5.18,0,0,1,1.29-.27c5-.39,9.88.22,14.82.56a1,1,0,0,0-.22-.85c-1.12-1-2.55-1-3.88-1.38-2.13-.56-3.34-2.2-2.32-3.54,2-2.66,2.81-5.87,4.38-8.72a3.85,3.85,0,0,1,3.55-2.32c3.11-.12,6.21.21,9.33.22a2.67,2.67,0,0,1,2.43,1.29c1.13,2,2.83,3.63,3.3,6A5.12,5.12,0,0,0,242,58a5.38,5.38,0,0,0,1.25,2.47c2.07,3.12,2.11,3.1-.41,5.09l-1.76.17c-.62.81-.16,1.07.6,1.13.46,0,.94-.16,1.38.09h.22a6.08,6.08,0,0,1,1.13-.31,20.75,20.75,0,0,1,4.59-.08,27.19,27.19,0,0,1,7.75,0,1.42,1.42,0,0,0,.19-.51C257,65.26,256.13,65.29,255.62,65Zm-19.3-18c-.32,0-.64,0-1.52.06l-8.29,0a8,8,0,0,1-1.19-.08c-.68-.09-.91-.5-.72-1.21a1.87,1.87,0,0,1,.07-.22c.58-1.57,1.15-3.15,1.76-4.71,1-2.59,2.07-5.18,3.12-7.76a8.12,8.12,0,0,1,.54-1.06.46.46,0,0,1,.78,0c.65,1.19,1.34,2.37,1.9,3.6,1.49,3.26,2.93,6.54,4.37,9.82C237.65,46.55,237.47,46.86,236.32,47Z"/></g></g></svg>